<svg xmlns="http://www.w3.org/2000/svg" width="63" height="63" viewBox="0 0 63 63"><defs><mask id="iw8ab" width="2" height="2" x="-1" y="-1"><path fill="#fff" d="M0 0h50v50H0z"/><path d="M25 0c13.807 0 25 11.192 25 25 0 13.806-11.193 25-25 25S0 38.805 0 25C0 11.191 11.193 0 25 0z"/></mask><filter id="iw8aa" width="94.4" height="94.4" x="-19" y="-19" filterUnits="userSpaceOnUse"><feOffset dx="6.4" dy="6.4" in="SourceGraphic" result="FeOffset1025Out"/><feGaussianBlur in="FeOffset1025Out" result="FeGaussianBlur1026Out" stdDeviation="3.6 3.6"/></filter></defs><g><g><g><g filter="url(#iw8aa)"><path fill="none" d="M25 0c13.807 0 25 11.192 25 25 0 13.806-11.193 25-25 25S0 38.805 0 25C0 11.191 11.193 0 25 0z" mask="url(&quot;#iw8ab&quot;)"/><path fill-opacity=".1" d="M25 0c13.807 0 25 11.192 25 25 0 13.806-11.193 25-25 25S0 38.805 0 25C0 11.191 11.193 0 25 0z"/></g><path fill="#fff" d="M25 0c13.807 0 25 11.192 25 25 0 13.806-11.193 25-25 25S0 38.805 0 25C0 11.191 11.193 0 25 0z"/></g><g><path fill="none" stroke="#5b6ceb" stroke-linecap="round" stroke-miterlimit="20" stroke-width="3" d="M20.5 17.368v0l8.132 8.131v0L20.5 33.631v0"/></g></g></g></svg>